<svg width="30" height="30" viewBox="0 0 30 30" fill="none" xmlns="http://www.w3.org/2000/svg">
<path d="M23.75 3.75H6.25C4.86929 3.75 3.75 4.86929 3.75 6.25V23.75C3.75 25.1307 4.86929 26.25 6.25 26.25H23.75C25.1307 26.25 26.25 25.1307 26.25 23.75V6.25C26.25 4.86929 25.1307 3.75 23.75 3.75Z" stroke="url(#paint0_linear)" stroke-width="2" stroke-linecap="round" stroke-linejoin="round"/>
<path d="M10.625 12.5C11.6605 12.5 12.5 11.6605 12.5 10.625C12.5 9.58947 11.6605 8.75 10.625 8.75C9.58947 8.75 8.75 9.58947 8.75 10.625C8.75 11.6605 9.58947 12.5 10.625 12.5Z" stroke="url(#paint1_linear)" stroke-width="2" stroke-linecap="round" stroke-linejoin="round"/>
<path d="M26.25 18.75L20 12.5L6.25 26.25" stroke="url(#paint2_linear)" stroke-width="2" stroke-linecap="round" stroke-linejoin="round"/>
<defs>
<linearGradient id="paint0_linear" x1="15" y1="3.75" x2="15" y2="26.25" gradientUnits="userSpaceOnUse">
<stop offset="0.0001" stop-color="#0000FF"/>
<stop offset="0.739583" stop-color="#FB4C64"/>
</linearGradient>
<linearGradient id="paint1_linear" x1="10.625" y1="8.75" x2="10.625" y2="12.5" gradientUnits="userSpaceOnUse">
<stop/>
<stop offset="0.0001" stop-color="#0000FF"/>
<stop offset="0.739583" stop-color="#FB4C64"/>
</linearGradient>
<linearGradient id="paint2_linear" x1="16.25" y1="12.5" x2="16.25" y2="26.25" gradientUnits="userSpaceOnUse">
<stop/>
<stop offset="0.0001" stop-color="#0000FF"/>
<stop offset="0.739583" stop-color="#FB4C64"/>
</linearGradient>
</defs>
</svg>
