<svg width="25" height="25" viewBox="0 0 25 25" fill="none" xmlns="http://www.w3.org/2000/svg">
<g clip-path="url(#clip0)">
<path d="M21.2522 5.49281C20.7415 4.98181 20.135 4.57645 19.4676 4.29989C18.8001 4.02333 18.0847 3.88098 17.3622 3.88098C16.6397 3.88098 15.9243 4.02333 15.2569 4.29989C14.5894 4.57645 13.983 4.98181 13.4722 5.49281L12.4122 6.55281L11.3522 5.49281C10.3205 4.46112 8.92126 3.88152 7.46223 3.88152C6.0032 3.88152 4.60392 4.46112 3.57223 5.49281C2.54054 6.5245 1.96094 7.92377 1.96094 9.38281C1.96094 10.8418 2.54054 12.2411 3.57223 13.2728L4.63223 14.3328L12.4122 22.1128L20.1922 14.3328L21.2522 13.2728C21.7632 12.7621 22.1686 12.1556 22.4451 11.4882C22.7217 10.8207 22.8641 10.1053 22.8641 9.38281C22.8641 8.66032 22.7217 7.94491 22.4451 7.27745C22.1686 6.60999 21.7632 6.00356 21.2522 5.49281V5.49281Z" stroke="black" stroke-width="2" stroke-linecap="round" stroke-linejoin="round"/>
</g>
<defs>
<clipPath id="clip0">
<rect width="24" height="24" fill="white" transform="translate(0.412109 0.882812)"/>
</clipPath>
</defs>
</svg>
