<svg width="24" height="36" viewBox="0 0 24 36" fill="none" xmlns="http://www.w3.org/2000/svg">
<path d="M7.47461 23.278V30.2819V34.4377C10.8873 34.4377 13.6539 31.6712 13.6539 28.2584V23.278H7.47461Z" fill="white"/>
<path d="M7.06348 23.278H12.8909C16.0134 23.278 18.5448 20.7466 18.5448 17.624V4.71741C18.5448 2.4909 16.7399 0.686005 14.5134 0.686005C10.3989 0.686005 7.06348 4.02146 7.06348 8.13594V8.81633V23.278Z" fill="white"/>
<path d="M2.88184 26.53C7.35263 26.53 10.9769 22.9057 10.9769 18.4349V13.6514C10.9769 11.416 9.16473 9.60385 6.92937 9.60385C4.694 9.60385 2.88184 11.416 2.88184 13.6514V15.6951V26.53Z" fill="white"/>
<path d="M6.92846 9.60486C9.16389 9.60486 10.976 11.417 10.976 13.6524V18.4359C10.976 18.5077 10.975 18.5793 10.9731 18.6507C10.9173 19.7186 10.0339 20.5672 8.95219 20.5672C7.83447 20.5672 6.92839 19.6612 6.92839 18.5435C6.92839 19.6612 6.02231 20.5672 4.90466 20.5672C3.78694 20.5672 2.88086 19.6612 2.88086 18.5435V15.6961V13.6524C2.88093 11.417 4.69309 9.60486 6.92846 9.60486Z" fill="white"/>
<path d="M18.5452 4.24078V6.14186C18.5452 7.36041 17.5447 8.353 16.3262 8.353C16.6081 9.39334 17.4711 10.1947 18.5452 10.3872V12.4558C20.8137 12.4558 22.6527 10.6168 22.6527 8.34827C22.6527 6.07977 20.8137 4.24078 18.5452 4.24078Z" fill="white"/>
<path d="M15.2755 6.01425C15.403 5.88665 15.4765 5.70966 15.4765 5.52924C15.4765 5.34882 15.4031 5.17183 15.2755 5.04423C15.1479 4.91663 14.9709 4.84323 14.7905 4.84323C14.6094 4.84323 14.4331 4.91663 14.3048 5.04423C14.1773 5.17183 14.1045 5.34882 14.1045 5.52924C14.1045 5.70966 14.1773 5.88665 14.3048 6.01425C14.4331 6.14185 14.6094 6.21525 14.7905 6.21525C14.9709 6.21525 15.1479 6.14185 15.2755 6.01425Z" fill="black"/>
<path d="M23.3141 22.592H16.8252C18.2898 21.4297 19.2309 19.6348 19.2309 17.6241V13.092C21.5503 12.7582 23.3388 10.7586 23.3388 8.34826C23.3388 5.89043 21.479 3.85977 19.093 3.58701C18.5851 1.53008 16.725 0 14.5134 0C13.5127 0 12.5352 0.179735 11.6081 0.534265C11.2542 0.669615 11.077 1.06613 11.2123 1.42004C11.3476 1.77389 11.7443 1.95101 12.0981 1.8158C12.8682 1.5213 13.6808 1.37202 14.5135 1.37202C16.3582 1.37202 17.8589 2.87274 17.8589 4.71742C17.8589 4.72057 17.8593 4.72359 17.8594 4.72668V6.14185C17.8594 6.98283 17.1717 7.66699 16.3264 7.66699C16.1127 7.66699 15.9113 7.76653 15.7815 7.93618C15.6517 8.10583 15.6084 8.32631 15.6643 8.53246C15.9649 9.64153 16.7982 10.5275 17.8594 10.9109L17.8589 17.624C17.8589 20.3633 15.6303 22.5919 12.891 22.5919H10.6139C11.2823 21.3537 11.6621 19.9379 11.6621 18.4348V13.6513C11.6621 11.3214 9.96944 9.38057 7.74958 8.99051V8.13581C7.74958 7.28934 7.9038 6.464 8.20791 5.68291C8.34538 5.32989 8.17059 4.93221 7.81757 4.79473C7.46441 4.65732 7.06687 4.83212 6.92946 5.18514C6.56327 6.12559 6.37763 7.11839 6.37763 8.13581V8.95092C4.0264 9.22492 2.1951 11.2277 2.1951 13.6513V22.5919H0.68601C0.307127 22.5919 0 22.899 0 23.2779C0 23.6568 0.307127 23.9639 0.68601 23.9639H2.19496V26.5299C2.19496 26.9088 2.50215 27.2159 2.88097 27.2159C4.284 27.2159 5.61095 26.8846 6.78855 26.297V34.4377C6.78855 34.8166 7.09575 35.1237 7.47456 35.1237C11.2602 35.1237 14.3399 32.044 14.3399 28.2584V23.964H16.7876L19.8388 27.0151C19.9728 27.1491 20.1483 27.216 20.3239 27.216C20.4994 27.216 20.675 27.149 20.809 27.0151C21.0768 26.7472 21.0768 26.3128 20.809 26.0449L18.728 23.964H23.314C23.6928 23.964 24 23.6569 24 23.278C24.0001 22.8991 23.6929 22.592 23.3141 22.592ZM17.3198 8.86456C18.4339 8.45899 19.2313 7.39155 19.2313 6.14192V4.99587C20.7903 5.31445 21.9668 6.69649 21.9668 8.34826C21.9668 9.99997 20.7903 11.3821 19.2313 11.7007V10.3872C19.2313 10.0551 18.9934 9.77057 18.6664 9.71198C18.1183 9.61375 17.6381 9.30244 17.3198 8.86456ZM3.56698 13.6515C3.56698 11.7979 5.0749 10.2899 6.9285 10.2899C8.7821 10.2899 10.29 11.7979 10.29 13.6515C10.29 13.6515 10.2892 18.5289 10.2883 18.5758C10.2704 19.2979 9.67864 19.8803 8.9523 19.8803C8.21463 19.8803 7.61451 19.2802 7.61451 18.5425V15.2153C7.61451 14.8364 7.30731 14.5293 6.9285 14.5293C6.54968 14.5293 6.24249 14.8364 6.24249 15.2153V18.5425C6.24249 19.2802 5.64237 19.8803 4.9047 19.8803C4.1671 19.8803 3.56698 19.2802 3.56698 18.5425V13.6515ZM3.56698 20.8976C3.96198 21.1228 4.41839 21.2523 4.9047 21.2523C5.70877 21.2523 6.43176 20.8999 6.9285 20.3419C7.42517 20.8999 8.14822 21.2523 8.9523 21.2523C9.24323 21.2523 9.52326 21.2055 9.78614 21.1203C8.78786 23.6787 6.40727 25.5507 3.56698 25.8125V20.8976ZM12.9679 28.2584C12.9679 31.0552 10.8672 33.3706 8.16057 33.7091V25.4469C8.73085 25.0165 9.24701 24.5181 9.6973 23.964H12.9679V28.2584Z" fill="black"/>
<path d="M9.26169 3.53843C9.44211 3.53843 9.61911 3.46503 9.74663 3.33743C9.87423 3.20983 9.9477 3.03284 9.9477 2.85242C9.9477 2.672 9.8743 2.49501 9.74663 2.36741C9.61911 2.23982 9.44211 2.16641 9.26169 2.16641C9.08052 2.16641 8.90428 2.23982 8.77668 2.36741C8.64909 2.49501 8.57568 2.672 8.57568 2.85242C8.57568 3.03284 8.64902 3.20983 8.77668 3.33743C8.90428 3.46503 9.08052 3.53843 9.26169 3.53843Z" fill="black"/>
</svg>
