<svg width="150" height="150" viewBox="0 0 150 150" fill="none" xmlns="http://www.w3.org/2000/svg">
<g clip-path="url(#clip0)">
<rect width="150" height="150" rx="40" fill="url(#paint0_linear)" fill-opacity="0.2"/>
<path d="M88.9893 25.6846C89.5339 25.1397 89.8477 24.3838 89.8477 23.6133C89.8477 22.8428 89.5342 22.0869 88.9893 21.542C88.4443 20.9971 87.6885 20.6836 86.918 20.6836C86.1445 20.6836 85.3916 20.9971 84.8438 21.542C84.2991 22.0869 83.9883 22.8428 83.9883 23.6133C83.9883 24.3838 84.2991 25.1397 84.8438 25.6846C85.3916 26.2295 86.1445 26.543 86.918 26.543C87.6885 26.543 88.4443 26.2295 88.9893 25.6846Z" fill="black" fill-opacity="0.8"/>
<path d="M123.318 96.4816H95.6062C101.861 91.5179 105.88 83.8526 105.88 75.2657V55.9107C115.786 54.4854 123.424 45.946 123.424 35.6522C123.424 25.1558 115.481 16.4836 105.291 15.3187C103.122 6.53437 95.1785 0 85.7338 0C81.46 0 77.2854 0.767578 73.3263 2.28164C71.8148 2.85967 71.0581 4.55303 71.6358 6.06445C72.2136 7.57559 73.9078 8.33203 75.4186 7.75459C78.7075 6.49687 82.178 5.85938 85.7341 5.85938C93.612 5.85938 100.021 12.2684 100.021 20.1463C100.021 20.1598 100.023 20.1727 100.023 20.1858V26.2295C100.023 29.821 97.0863 32.7428 93.4761 32.7428C92.5638 32.7428 91.7036 33.1679 91.1493 33.8924C90.595 34.6169 90.4099 35.5585 90.6486 36.4389C91.9324 41.1753 95.4911 44.959 100.023 46.5961L100.021 75.2654C100.021 86.964 90.5036 96.4813 78.8048 96.4813H69.0806C71.9347 91.1936 73.5568 85.147 73.5568 78.728V58.2996C73.5568 48.3492 66.3281 40.0608 56.8479 38.395V34.7449C56.8479 31.13 57.5065 27.6053 58.8053 24.2695C59.3924 22.7619 58.6459 21.0636 57.1383 20.4765C55.6301 19.8896 53.9323 20.6361 53.3455 22.1437C51.7816 26.1601 50.9889 30.3999 50.9889 34.7449V38.226C40.9477 39.3961 33.1269 47.9493 33.1269 58.2996V96.4813H26.6821C25.0641 96.4813 23.7524 97.793 23.7524 99.411C23.7524 101.029 25.0641 102.341 26.6821 102.341H33.1263V113.299C33.1263 114.917 34.4382 116.229 36.056 116.229C42.0478 116.229 47.7146 114.814 52.7437 112.304V147.07C52.7437 148.688 54.0557 150 55.6734 150C71.8403 150 84.9926 136.847 84.9926 120.681V102.341H95.446L108.476 115.371C109.049 115.943 109.798 116.229 110.548 116.229C111.298 116.229 112.047 115.943 112.62 115.371C113.764 114.227 113.764 112.372 112.62 111.228L103.733 102.341H123.318C124.935 102.341 126.247 101.029 126.247 99.4113C126.248 97.7933 124.936 96.4816 123.318 96.4816ZM97.7185 37.8571C102.477 36.1251 105.882 31.5665 105.882 26.2298V21.3354C112.54 22.696 117.564 28.5981 117.564 35.6522C117.564 42.7061 112.54 48.6085 105.882 49.969V44.3599C105.882 42.9413 104.866 41.7264 103.47 41.4762C101.129 41.0566 99.0779 39.7271 97.7185 37.8571ZM38.9856 58.3002C38.9856 50.3845 45.4254 43.9444 53.3414 43.9444C61.2574 43.9444 67.6972 50.3845 67.6972 58.3002C67.6972 58.3002 67.6936 79.13 67.6898 79.3301C67.6134 82.4142 65.0862 84.9012 61.9843 84.9012C58.834 84.9012 56.2711 82.3383 56.2711 79.188V64.9787C56.2711 63.3606 54.9592 62.049 53.3414 62.049C51.7236 62.049 50.4117 63.3606 50.4117 64.9787V79.188C50.4117 82.3383 47.8488 84.9012 44.6985 84.9012C41.5485 84.9012 38.9856 82.3383 38.9856 79.188V58.3002ZM38.9856 89.2456C40.6726 90.2074 42.6217 90.7603 44.6985 90.7603C48.1324 90.7603 51.22 89.2553 53.3414 86.8723C55.4625 89.2553 58.5504 90.7603 61.9843 90.7603C63.2268 90.7603 64.4227 90.5604 65.5453 90.1966C61.282 101.123 51.1154 109.117 38.9856 110.235V89.2456ZM79.1332 120.681C79.1332 132.625 70.1619 142.513 58.6031 143.959V108.674C61.0386 106.836 63.2429 104.707 65.1659 102.341H79.1332V120.681Z" fill="black" fill-opacity="0.8"/>
<path d="M63.3047 15.1114C64.0752 15.1114 64.8311 14.7979 65.3757 14.253C65.9206 13.708 66.2344 12.9522 66.2344 12.1817C66.2344 11.4112 65.9209 10.6553 65.3757 10.1104C64.8311 9.56546 64.0752 9.25198 63.3047 9.25198C62.531 9.25198 61.7783 9.56546 61.2334 10.1104C60.6885 10.6553 60.375 11.4112 60.375 12.1817C60.375 12.9522 60.6882 13.708 61.2334 14.253C61.7783 14.7979 62.531 15.1114 63.3047 15.1114Z" fill="black" fill-opacity="0.8"/>
</g>
<defs>
<linearGradient id="paint0_linear" x1="0" y1="75" x2="150" y2="75" gradientUnits="userSpaceOnUse">
<stop stop-color="#FB4C64"/>
<stop offset="1" stop-color="#0000FF"/>
</linearGradient>
<clipPath id="clip0">
<rect width="150" height="150" rx="40" fill="white"/>
</clipPath>
</defs>
</svg>
