<svg width="50" height="50" viewBox="0 0 50 50" fill="none" xmlns="http://www.w3.org/2000/svg">
<path d="M25 31.25C28.4518 31.25 31.25 28.4518 31.25 25C31.25 21.5482 28.4518 18.75 25 18.75C21.5482 18.75 18.75 21.5482 18.75 25C18.75 28.4518 21.5482 31.25 25 31.25Z" stroke="black" stroke-width="2" stroke-linecap="round" stroke-linejoin="round"/>
<path d="M40.4166 31.25C40.1393 31.8783 40.0565 32.5754 40.1791 33.2512C40.3016 33.927 40.6238 34.5506 41.1041 35.0416L41.2291 35.1666C41.6165 35.5536 41.9238 36.0132 42.1335 36.519C42.3432 37.0248 42.4511 37.567 42.4511 38.1146C42.4511 38.6621 42.3432 39.2043 42.1335 39.7101C41.9238 40.216 41.6165 40.6755 41.2291 41.0625C40.8421 41.4499 40.3826 41.7572 39.8768 41.9669C39.3709 42.1766 38.8287 42.2845 38.2812 42.2845C37.7336 42.2845 37.1914 42.1766 36.6856 41.9669C36.1798 41.7572 35.7202 41.4499 35.3332 41.0625L35.2082 40.9375C34.7173 40.4572 34.0936 40.135 33.4178 40.0125C32.742 39.8899 32.045 39.9727 31.4166 40.25C30.8004 40.5141 30.2749 40.9526 29.9047 41.5115C29.5346 42.0704 29.3359 42.7254 29.3333 43.3958V43.75C29.3333 44.855 28.8943 45.9149 28.1129 46.6963C27.3315 47.4777 26.2717 47.9166 25.1666 47.9166C24.0615 47.9166 23.0017 47.4777 22.2203 46.6963C21.4389 45.9149 20.9999 44.855 20.9999 43.75V43.5625C20.9838 42.8729 20.7606 42.2041 20.3593 41.6431C19.958 41.0821 19.3973 40.6547 18.7499 40.4166C18.1216 40.1393 17.4245 40.0566 16.7487 40.1791C16.0729 40.3017 15.4492 40.6239 14.9583 41.1041L14.8333 41.2291C14.4463 41.6165 13.9867 41.9239 13.4809 42.1336C12.9751 42.3432 12.4329 42.4512 11.8853 42.4512C11.3378 42.4512 10.7956 42.3432 10.2898 42.1336C9.78392 41.9239 9.32439 41.6165 8.93742 41.2291C8.55002 40.8422 8.24269 40.3826 8.033 39.8768C7.82332 39.371 7.71539 38.8288 7.71539 38.2812C7.71539 37.7337 7.82332 37.1915 8.033 36.6856C8.24269 36.1798 8.55002 35.7203 8.93742 35.3333L9.06242 35.2083C9.5427 34.7173 9.86489 34.0937 9.98743 33.4179C10.11 32.742 10.0272 32.045 9.74992 31.4166C9.48583 30.8005 9.04733 30.2749 8.48839 29.9048C7.92945 29.5346 7.27447 29.336 6.60409 29.3333H6.24992C5.14485 29.3333 4.08504 28.8943 3.30364 28.1129C2.52224 27.3315 2.08325 26.2717 2.08325 25.1666C2.08325 24.0616 2.52224 23.0018 3.30364 22.2204C4.08504 21.439 5.14485 21 6.24992 21H6.43742C7.12699 20.9838 7.79576 20.7606 8.35679 20.3594C8.91782 19.9581 9.34516 19.3973 9.58325 18.75C9.86057 18.1216 9.9433 17.4246 9.82076 16.7488C9.69822 16.0729 9.37604 15.4493 8.89575 14.9583L8.77075 14.8333C8.38335 14.4463 8.07602 13.9868 7.86634 13.481C7.65665 12.9752 7.54872 12.433 7.54872 11.8854C7.54872 11.3378 7.65665 10.7956 7.86634 10.2898C8.07602 9.78399 8.38335 9.32445 8.77075 8.93748C9.15772 8.55008 9.61726 8.24275 10.1231 8.03306C10.6289 7.82338 11.1711 7.71545 11.7187 7.71545C12.2662 7.71545 12.8084 7.82338 13.3143 8.03306C13.8201 8.24275 14.2796 8.55008 14.6666 8.93748L14.7916 9.06248C15.2826 9.54276 15.9062 9.86495 16.582 9.98749C17.2578 10.11 17.9549 10.0273 18.5833 9.74998H18.7499C19.3661 9.48589 19.8916 9.04739 20.2618 8.48845C20.6319 7.92951 20.8306 7.27453 20.8333 6.60415V6.24998C20.8333 5.14491 21.2722 4.0851 22.0536 3.3037C22.835 2.5223 23.8948 2.08331 24.9999 2.08331C26.105 2.08331 27.1648 2.5223 27.9462 3.3037C28.7276 4.0851 29.1666 5.14491 29.1666 6.24998V6.43748C29.1693 7.10787 29.3679 7.76284 29.7381 8.32178C30.1082 8.88072 30.6337 9.31922 31.2499 9.58331C31.8783 9.86064 32.5753 9.94336 33.2511 9.82082C33.927 9.69828 34.5506 9.3761 35.0416 8.89581L35.1666 8.77081C35.5536 8.38341 36.0131 8.07608 36.5189 7.8664C37.0247 7.65671 37.5669 7.54879 38.1145 7.54879C38.6621 7.54879 39.2043 7.65671 39.7101 7.8664C40.2159 8.07608 40.6754 8.38341 41.0624 8.77081C41.4498 9.15778 41.7571 9.61732 41.9668 10.1231C42.1765 10.629 42.2844 11.1712 42.2844 11.7187C42.2844 12.2663 42.1765 12.8085 41.9668 13.3143C41.7571 13.8201 41.4498 14.2797 41.0624 14.6666L40.9374 14.7916C40.4571 15.2826 40.1349 15.9063 40.0124 16.5821C39.8899 17.2579 39.9726 17.9549 40.2499 18.5833V18.75C40.514 19.3662 40.9525 19.8917 41.5114 20.2618C42.0704 20.632 42.7254 20.8306 43.3958 20.8333H43.7499C44.855 20.8333 45.9148 21.2723 46.6962 22.0537C47.4776 22.8351 47.9166 23.8949 47.9166 25C47.9166 26.105 47.4776 27.1649 46.6962 27.9463C45.9148 28.7277 44.855 29.1666 43.7499 29.1666H43.5624C42.892 29.1693 42.2371 29.368 41.6781 29.7381C41.1192 30.1083 40.6807 30.6338 40.4166 31.25V31.25Z" stroke="black" stroke-width="2" stroke-linecap="round" stroke-linejoin="round"/>
</svg>
