<svg width="30" height="30" viewBox="0 0 30 30" fill="none" xmlns="http://www.w3.org/2000/svg">
<path d="M15 27.5C21.9036 27.5 27.5 21.9036 27.5 15C27.5 8.09644 21.9036 2.5 15 2.5C8.09644 2.5 2.5 8.09644 2.5 15C2.5 21.9036 8.09644 27.5 15 27.5Z" stroke="url(#paint0_linear)" stroke-width="2" stroke-linecap="round" stroke-linejoin="round"/>
<path d="M10 17.5C10 17.5 11.875 20 15 20C18.125 20 20 17.5 20 17.5" stroke="url(#paint1_linear)" stroke-width="2" stroke-linecap="round" stroke-linejoin="round"/>
<path d="M11.25 11.25H11.2625" stroke="url(#paint2_linear)" stroke-width="2" stroke-linecap="round" stroke-linejoin="round"/>
<path d="M18.75 11.25H18.7625" stroke="url(#paint3_linear)" stroke-width="2" stroke-linecap="round" stroke-linejoin="round"/>
<defs>
<linearGradient id="paint0_linear" x1="15" y1="2.5" x2="15" y2="27.5" gradientUnits="userSpaceOnUse">
<stop stop-color="#0000FF"/>
<stop offset="0.723958" stop-color="#FB4C64"/>
</linearGradient>
<linearGradient id="paint1_linear" x1="15" y1="17.5" x2="15" y2="20" gradientUnits="userSpaceOnUse">
<stop stop-color="#0000FF"/>
<stop offset="0.723958" stop-color="#FB4C64"/>
</linearGradient>
<linearGradient id="paint2_linear" x1="11.2562" y1="11.25" x2="11.2562" y2="12.25" gradientUnits="userSpaceOnUse">
<stop stop-color="#0000FF"/>
<stop offset="0.723958" stop-color="#FB4C64"/>
</linearGradient>
<linearGradient id="paint3_linear" x1="18.7563" y1="11.25" x2="18.7563" y2="12.25" gradientUnits="userSpaceOnUse">
<stop stop-color="#0000FF"/>
<stop offset="0.723958" stop-color="#FB4C64"/>
</linearGradient>
</defs>
</svg>
