<svg width="25" height="25" viewBox="0 0 25 25" fill="none" xmlns="http://www.w3.org/2000/svg">
<path d="M3.00586 6.34761H5.00586H21.0059" stroke="black" stroke-width="2" stroke-linecap="round" stroke-linejoin="round"/>
<path d="M8.00586 6.34761V4.34761C8.00586 3.81718 8.21657 3.30847 8.59165 2.9334C8.96672 2.55832 9.47543 2.34761 10.0059 2.34761H14.0059C14.5363 2.34761 15.045 2.55832 15.4201 2.9334C15.7951 3.30847 16.0059 3.81718 16.0059 4.34761V6.34761M19.0059 6.34761V20.3476C19.0059 20.878 18.7951 21.3868 18.4201 21.7618C18.045 22.1369 17.5363 22.3476 17.0059 22.3476H7.00586C6.47543 22.3476 5.96672 22.1369 5.59165 21.7618C5.21657 21.3868 5.00586 20.878 5.00586 20.3476V6.34761H19.0059Z" stroke="black" stroke-width="2" stroke-linecap="round" stroke-linejoin="round"/>
<path d="M10.0059 11.3476V17.3476" stroke="black" stroke-width="2" stroke-linecap="round" stroke-linejoin="round"/>
<path d="M14.0059 11.3476V17.3476" stroke="black" stroke-width="2" stroke-linecap="round" stroke-linejoin="round"/>
</svg>
